<?xml version="1.0" encoding="utf-8"?>
<!-- Generator: Adobe Illustrator 27.3.1, SVG Export Plug-In . SVG Version: 6.00 Build 0)  -->
<svg version="1.1" id="Lager_1" xmlns="http://www.w3.org/2000/svg" xmlns:xlink="http://www.w3.org/1999/xlink" x="0px" y="0px"
	 viewBox="0 0 153.8 74.1" style="enable-background:new 0 0 153.8 74.1;" xml:space="preserve">
<style type="text/css">
	.st0{fill:#FFFFFF;}
</style>
<path class="st0" d="M153.8,39.4c0,6.2-1.8,12-5.4,17.4c-3.6,5.3-8.5,9.6-14.7,12.7c-6.2,3.1-12.9,4.6-20.2,4.6
	c-8.8,0-17-2.1-24.6-6.2s-13-9.8-16.4-16.9c1.1,2.3,1.6,4.7,1.6,7.3c0,4.3-1.6,8.1-4.6,11.2s-6.8,4.6-11.2,4.6
	c-4.7,0-8.6-1.7-11.9-4.9c-3.3-3.3-4.9-7.3-4.9-11.9c0-5.2,1.5-9.6,4.5-13.2c3-3.6,7.3-6.3,13-8c-3-2.1-6.8-3.9-11.3-5.4
	s-8.6-2.2-12.4-2.2c-7.5,0-14,2.5-19.5,7.4s-8.2,11-8.2,18.3c1.3-0.7,2.8-1,4.6-1c2.9,0,5.3,1,7.3,3.1s3.1,4.5,3.1,7.3
	s-1,5.3-3.1,7.4c-2,2.1-4.5,3.1-7.3,3.1c-3.5,0-6.4-1.5-8.7-4.4S0,62.7,0,57.8c0-5.6,1.6-11,4.9-16c3.2-5,7.6-9,13.1-12
	s11.3-4.5,17.3-4.5c3.4,0,7.8,0.7,13.1,2.1s9.3,3,12.1,4.9c-1.4-2.2-2.7-4.9-3.8-8.1c-1.1-3.1-1.6-5.8-1.6-7.9
	c0-4.3,1.6-8.2,4.9-11.4C63.2,1.6,67,0,71.3,0s8.1,1.5,11.2,4.6s4.6,6.8,4.6,11.2c0,3-0.8,5.8-2.4,8.5c1.4-0.4,2.2-0.6,2.6-0.6
	c3.8,0,7.2,1.2,10.1,3.5s6.6,7.3,10.9,14.9c4.2,7.5,7.9,12.5,10.9,14.9c3,2.4,6.4,3.5,10.1,3.5s7.2-1,10.3-2.9s5.7-4.7,7.6-8.2
	c2-3.5,3-6.8,3-9.9s-0.8-5.7-2.5-7.6s-3.8-3-6.4-3c-1.6,0-3,0.5-4,1.6s-1.6,2.4-1.6,3.9c0,1,0.1,2,0.4,2.9c-2.2,0-3.9-0.7-5.2-2
	s-2-3-2-5.1c0-2.3,0.9-4.3,2.7-5.9c1.8-1.6,4-2.5,6.5-2.5c4.7,0,8.4,1.6,11.2,4.9S153.8,34.1,153.8,39.4L153.8,39.4z"/>
</svg>
